<?xml version="1.0" encoding="utf-8"?>
<!-- Generator: Adobe Illustrator 21.0.0, SVG Export Plug-In . SVG Version: 6.00 Build 0)  -->
<svg version="1.1" id="Layer_1" xmlns="http://www.w3.org/2000/svg" xmlns:xlink="http://www.w3.org/1999/xlink" x="0px" y="0px"
	 viewBox="0 0 850.4 850.4" style="enable-background:new 0 0 850.4 850.4;" xml:space="preserve">
<style type="text/css">
	.st0{display:none;fill:#A6C953;stroke:#000000;stroke-miterlimit:10;}
	.st1{fill:#A6C953;stroke:#000000;stroke-miterlimit:10;}
	.st2{fill:#FCFCFC;}
</style>
<rect y="0" class="st0" width="850.4" height="850.4"/>
<path class="st1" d="M-149.4,285"/>
<path class="st2" d="M244,406.4c-5.9,0-10.7,4.2-10.7,9.4c0,0,0,0,0,0v206.6c0,5.2,4.8,9.4,10.7,9.4c5.9,0,10.7-4.2,10.7-9.4V415.8
	C254.7,410.6,249.9,406.4,244,406.4C244,406.4,244,406.4,244,406.4z"/>
<path class="st2" d="M595.7,415.8v206.6c0,5.2,4.8,9.4,10.7,9.4c5.9,0,10.7-4.2,10.7-9.4V415.8c0-5.2-4.8-9.4-10.7-9.4
	C600.5,406.4,595.7,410.6,595.7,415.8z"/>
<path class="st2" d="M212,190.5v118.7l-2.5-2.6c-3.8-4-10.5-4.5-15-1.2c-2.4,1.8-3.8,4.4-3.8,7.2v315c0,11,4.4,21.6,12.3,30.1
	l24.2,25.6c14.2,15,35.2,23.7,57.3,23.6h281.2c22.2,0,43.2-8.6,57.3-23.6l24.2-25.6c8-8.4,12.3-19.1,12.3-30.1v-315
	c0-5.2-4.8-9.4-10.7-9.4c-3.2,0-6.2,1.2-8.2,3.4l-2.5,2.6V275c-0.1-27.5-22.6-50.9-53.3-55.5v-19.6c11.8,0,21.3-8.4,21.3-18.8v-18.8
	c0-10.4-9.6-18.8-21.3-18.8h-64c-11.8,0-21.3,8.4-21.3,18.8v18.8c0,10.4,9.6,18.8,21.3,18.8v19.6c-27.9,4.2-49.3,24-52.8,48.7
	c-7.1-1.7-14.5-2.6-21.8-2.6c-15,0-29.7,3.6-42.6,10.2V228c0-25.9-23.9-46.9-53.3-46.9c-11.6,0-22.8,3.4-32,9.6v-0.2
	c0-25.9-23.9-46.9-53.3-46.9S212,164.5,212,190.5z M638.4,627.6c0,6.6-2.6,13-7.4,18l-24.2,25.6c-10.1,10.7-25.1,16.9-40.9,16.9
	H284.6c-15.8,0-30.8-6.2-40.9-16.9l-24.2-25.6c-4.8-5.1-7.4-11.4-7.4-18V338.4l25.8,27.3c0.4,0.4,0.9,0.7,1.4,1
	c0.4,0.4,0.9,0.8,1.4,1.1c0.1,0.1,0.2,0,0.3,0.1c0.7,0.3,1.5,0.5,2.2,0.7c0.6,0.2,1.1,0.3,1.7,0.4c0.7,0,1.5,0,2.2-0.1
	c0.6,0,1.2-0.1,1.8-0.2c0.6-0.2,1.2-0.4,1.8-0.7c0.7-0.2,1.3-0.6,1.9-0.9c0.1-0.1,0.2-0.1,0.3-0.1c0.4-0.4,0.8-0.8,1.1-1.2
	c0.4-0.4,0.9-0.8,1.2-1.2l3.2-4.8c2.5-3.3,7.6-4.3,11.4-2c0.9,0.5,1.7,1.2,2.3,2c8.2,12.1,25.9,16.1,39.7,8.9
	c0.4-0.2,0.8-0.4,1.2-0.6c1-0.5,1.9-1.1,2.7-1.8c2.6-1.8,4.9-4,6.6-6.5c2.5-3.3,7.6-4.3,11.4-2c0.9,0.5,1.7,1.2,2.3,2
	c8.3,12.2,26.3,16.2,40.2,8.8c4.1-2.2,7.5-5.2,10-8.8c2.5-3.3,7.6-4.3,11.4-2c0.9,0.5,1.7,1.2,2.3,2c8.3,12.2,26.3,16.2,40.2,8.8
	c4.1-2.2,7.5-5.2,10-8.8c2.5-3.3,7.6-4.3,11.4-2c0.9,0.5,1.7,1.2,2.3,2c8.3,12.2,26.3,16.2,40.2,8.8c4.1-2.2,7.5-5.2,10-8.8
	c2.5-3.3,7.6-4.3,11.4-2c0.9,0.5,1.7,1.2,2.3,2c8.3,12.2,26.3,16.2,40.2,8.8c4.1-2.2,7.6-5.2,10-8.8c2.3-3.3,7.2-4.4,11-2.4
	c1.1,0.6,2,1.4,2.7,2.4l3.3,4.9c0.8,0.8,1.6,1.6,2.3,2.4c0.1,0.1,0.2,0.1,0.3,0.1c0.6,0.4,1.3,0.7,1.9,0.9c1,0.7,2.3,1,3.6,0.9
	c1.3,0.3,2.7,0.2,3.9-0.3c0.8-0.2,1.5-0.4,2.2-0.7c0.1,0,0.2,0,0.3-0.1c0.9-0.7,1.8-1.4,2.7-2.1l25.8-27.3V627.6z M521.1,162.3l64,0
	v18.8h-64V162.3z M563.8,199.8v18.8h-21.3v-18.8H563.8z M531.8,237.4h42.6c23.5,0,42.6,16.8,42.6,37.6v56.7L605,344.4
	c-11.8-9.7-30.3-9.1-41.3,1.3c-1.4,1.3-2.6,2.7-3.7,4.3c-2.5,3.3-7.6,4.3-11.4,2c-0.9-0.5-1.7-1.2-2.3-2c-3.4-4.8-8.5-8.6-14.5-10.6
	c-0.4-26.3-16.6-50.5-42.5-63.5V275C489.2,254.2,508.3,237.4,531.8,237.4z M473.9,289.8c21.9,9,36.1,28.3,36.4,49.6
	c-6,2-11,5.7-14.3,10.5c-2.5,3.3-7.6,4.3-11.4,2c-0.9-0.5-1.7-1.2-2.3-2c-8.3-12.2-26.3-16.2-40.2-8.8c-4.1,2.2-7.5,5.2-10,8.8
	c-2.5,3.3-7.6,4.3-11.4,2c-0.9-0.5-1.7-1.2-2.3-2c-7.2-10.9-22.5-15.4-35.7-10.6c0.3-14.3,6.9-27.9,18.2-38
	C420.1,284.4,449.3,279.8,473.9,289.8z M350.6,199.8c17.7,0,32,12.6,32,28.2v63.2c-17.1,16.8-24.5,39.5-20.1,61.7
	c-3.1,0.6-6.4-0.6-8.1-3c-7.2-10.9-22.5-15.4-35.8-10.5V228C318.6,212.5,332.9,199.9,350.6,199.8z M265.3,162.3
	c17.7,0,32,12.6,32,28.2v162.7c-2.8,0.1-5.4-1.2-6.9-3.3c-8.3-12.2-26.2-16.1-40-8.9c-1.8,0.9-3.5,2.1-5,3.3l-12.1-12.7V190.5
	C233.4,174.9,247.7,162.3,265.3,162.3z"/>
<path class="st2" d="M254.7,237.4c2.8,0,5.5-1,7.5-2.8l10.7-9.4c4.1-3.7,4.1-9.6-0.1-13.3c-4.1-3.6-10.8-3.6-14.9,0l-10.7,9.4
	c-4.2,3.7-4.2,9.6,0,13.3C249.1,236.4,251.8,237.4,254.7,237.4z"/>
<path class="st2" d="M254.7,275c2.8,0,5.5-1,7.5-2.8l10.7-9.4c4.1-3.7,4.1-9.6-0.1-13.3c-4.1-3.6-10.8-3.6-14.9,0l-10.7,9.4
	c-4.2,3.7-4.2,9.6,0,13.3C249.1,274,251.8,275,254.7,275z"/>
<path class="st2" d="M254.7,312.5c2.8,0,5.5-1,7.5-2.8l10.7-9.4c4.1-3.7,4.1-9.6-0.1-13.3c-4.1-3.6-10.8-3.6-14.9,0l-10.7,9.4
	c-4.2,3.7-4.2,9.6,0,13.3C249.1,311.5,251.8,312.5,254.7,312.5z"/>
<path class="st2" d="M339.9,275c2.8,0,5.5-1,7.5-2.8l10.7-9.4c4.1-3.7,4.1-9.6-0.1-13.3c-4.1-3.6-10.8-3.6-14.9,0l-10.7,9.4
	c-4.2,3.7-4.2,9.6,0,13.3C334.4,274,337.1,275,339.9,275z"/>
<path class="st2" d="M339.9,312.5c2.8,0,5.5-1,7.5-2.8l10.7-9.4c4.1-3.7,4.1-9.6-0.1-13.3c-4.1-3.6-10.8-3.6-14.9,0l-10.7,9.4
	c-4.2,3.7-4.2,9.6,0,13.3C334.4,311.5,337.1,312.5,339.9,312.5z"/>
</svg>
