<?xml version="1.0" encoding="utf-8"?>
<!-- Generator: Adobe Illustrator 21.0.0, SVG Export Plug-In . SVG Version: 6.00 Build 0)  -->
<svg version="1.1" id="Layer_1" xmlns="http://www.w3.org/2000/svg" xmlns:xlink="http://www.w3.org/1999/xlink" x="0px" y="0px"
	 viewBox="0 0 850.4 850.4" style="enable-background:new 0 0 850.4 850.4;" xml:space="preserve">
<style type="text/css">
	.st0{display:none;fill:#A6C953;stroke:#000000;stroke-miterlimit:10;}
	.st1{fill:#A6C953;stroke:#000000;stroke-miterlimit:10;}
	.st2{fill:none;stroke:#FFFFFF;stroke-width:14.8557;stroke-linecap:round;stroke-linejoin:round;stroke-miterlimit:10;}
</style>
<rect y="0" class="st0" width="850.4" height="850.4"/>
<path class="st1" d="M-149.4,285"/>
<g id="mDT6Bx_1_">
	<g>
		<path class="st2" d="M78.5,481.9c-0.5-6.8-1.2-11.1-1.2-15.4c-0.1-67.6-0.4-135.3,0.1-202.9c0.3-38.3,18.8-56.5,57.3-56.5
			c146.5-0.2,293.1-0.6,439.6,0.4c26.8,0.2,53.8,4.7,80.1,10.4c8.4,1.8,18.5,12.4,21.4,21.1c16.3,49,30.2,98.9,46.2,148.1
			c3.4,10.5,13.1,18.8,19,28.7c5.1,8.6,11.3,17.6,12.4,27c2,17,0.6,34.4,0.6,52.9c7.8,1.9,14.8,3.5,23,5.5
			c0.5,5.5,1.3,11.3,1.4,17.2c0.6,42.8-3.7,47.2-48.1,43.9c-6-0.4-14.8-6.6-16.7-12c-15.4-44.3-46.6-68.8-89.4-68.3
			c-41.9,0.6-74.1,27.2-86.6,71.7c-0.6,2.2-1.1,4.4-1.9,7.8c-81.4,0-163.1,0-243.3,0c-10.8-20.4-21.3-40.4-32.2-61.1
			c100,0,201,0,301.9,0c1.5-1.8,3-3.6,4.5-5.3c-4.6-4.2-8.7-9.7-14.1-12.3c-4.3-2-10.3-0.5-15.6-0.5c-143.5-0.1-287.1-0.2-430.6-0.3
			C97.2,481.9,88.4,481.9,78.5,481.9z M594.9,323.6C594.9,323.6,594.9,323.6,594.9,323.6c0.1,17.2-1.3,34.6,0.8,51.5
			c0.8,6.1,9.7,15.3,15.5,15.8c20.8,1.9,41.8,1,62.7,0.6c12.8-0.2,17.7-7.2,13.4-19.3c-12.1-33.7-23.9-67.5-37-100.8
			c-8.1-20.5-27.1-15.3-42.8-14.3c-17.5,1.1-12,15.8-12.5,26C594.4,296.7,594.9,310.1,594.9,323.6z M423.8,394.5
			c3.5-5.5,5.7-7.3,5.7-9.2c0.7-38.2,1.4-76.3,1.1-114.5c0-3.2-6.5-9-10.1-9.1c-28.2-0.8-56.5-0.4-87.2-0.4
			c0,36.3-0.7,69.9,0.5,103.4c0.3,8.7,4.4,23.1,9.8,24.6c11.4,3.3,25.2,6.2,32.7-12.6c7.6-19.1,27.3-18,38.3-0.1
			C417.2,381,419.3,385.7,423.8,394.5z M216.4,390c20.1-18.9,33.7-24.9,52.2-1c5.3,6.7,26,4,38.5,1c4.2-1,6.8-16.1,7.2-24.9
			c1-20.9,0.5-42,0.3-63c-0.4-44,5.5-38.5-37.7-38.7c-60.3-0.3-60.3-0.1-60.5,60.7C216.4,346.1,216.4,368.1,216.4,390z M550.7,389.9
			c0-40.2,0.5-78.2-0.7-116.3c-0.1-4.4-10-11.7-15.8-12.1c-20.9-1.5-42,0-62.9-0.8c-15.1-0.6-19.5,6.2-19.3,20.2
			c0.6,30.7,0,61.5,0.4,92.2c0.1,5.8,2.4,11.6,5.1,23.6c6.8-12.4,9.7-19,13.8-24.7c10.2-14.3,25.6-15.3,31.8,0.3
			C512.5,396.4,529.8,390.3,550.7,389.9z M98.1,387.7c32.3-33.9,31.8-33.5,63.4-2c4.8,4.8,16.8,4.5,24.9,3c3.7-0.7,8.1-9.6,8.4-15
			c1-20.2,0.4-40.4,0.4-60.7c0-52.5,0-52.5-53-52.5c-44.3,0-44.3,0-44.1,45.6C98.2,333.3,98.1,360.5,98.1,387.7z"/>
		<path class="st2" d="M198.6,499.2c37.8,0.3,71.6,34.7,71.4,72.6c-0.2,39.1-32.7,71.7-71.7,71.8c-40.1,0.1-72.6-33.1-72-73.6
			C126.9,530.6,159.4,498.8,198.6,499.2z M166.5,571.7c-0.2,20.1,9.7,30.8,29.4,31.5c19.8,0.7,32.7-11.7,32.4-31.5
			c-0.3-19-11.9-30.3-31.3-30.4C177.3,541.2,166.8,551.7,166.5,571.7z"/>
		<path class="st2" d="M554.5,572.1c-0.4-39.8,30.8-72.2,69.9-72.9c37.7-0.6,72.4,32.7,73.4,70.5c1.1,39.8-31.9,73.8-71.8,73.9
			C586.9,643.8,554.9,611.7,554.5,572.1z M655.6,573.8c0.6-19.9-9.5-31.5-28.5-32.6c-20.4-1.2-32.4,10.1-32.7,30.6
			c-0.2,19.9,10.2,31,29.5,31.4C643.5,603.5,655,592.9,655.6,573.8z"/>
		<path class="st2" d="M74.9,500c20.8,0,41.8,0,61.2,0c-10.7,20.3-21.2,40.2-32.2,61.1C74.5,562.1,67.2,548.3,74.9,500z"/>
		<path class="st2" d="M383.2,359.3c-16.6-0.3-32.5-16.8-32.5-33.9c0-17.3,15.6-32.8,33-33c18.4-0.2,34.3,16.2,33.6,34.6
			C416.5,344,400.1,359.6,383.2,359.3z"/>
		<path class="st2" d="M289,335.4c0.1,17.5-15.2,33.4-32.4,33.6c-17.1,0.2-33.6-15.2-34.4-32c-0.8-17.2,16.8-35.2,34.1-34.9
			C273.8,302.4,288.9,317.7,289,335.4z"/>
		<path class="st2" d="M498.4,354.1c-17.8,0.2-33.4-14.4-34.2-31.9c-0.8-18.2,15.4-35.1,33.5-34.9c17.3,0.2,33.1,15.9,33.4,33
			C531.2,337.2,515.2,353.9,498.4,354.1z"/>
		<path class="st2" d="M175.2,319.6c0,16.9-15.9,33.3-32.8,33.7c-17.8,0.4-34.5-16.7-33.9-34.7c0.6-17.6,16.2-32.5,33.7-32.2
			C159.8,286.7,175.2,302.2,175.2,319.6z"/>
	</g>
</g>
</svg>
