<?xml version="1.0" encoding="utf-8"?>
<!-- Generator: Adobe Illustrator 21.0.0, SVG Export Plug-In . SVG Version: 6.00 Build 0)  -->
<svg version="1.1" id="Layer_1" xmlns="http://www.w3.org/2000/svg" xmlns:xlink="http://www.w3.org/1999/xlink" x="0px" y="0px"
	 viewBox="0 0 850.4 850.4" style="enable-background:new 0 0 850.4 850.4;" xml:space="preserve">
<style type="text/css">
	.st0{fill:#FFFFFF;stroke:#FFFFFF;stroke-width:3.611;stroke-linecap:round;stroke-linejoin:round;stroke-miterlimit:10;}
</style>
<g>
	<g>
		<g>
			<path class="st0" d="M679.7,279.7c2.4,0,4.3,1.8,4.3,4.3v61.8v110.7v129.1c0,6.7-5.5,12.2-12.2,12.2c-6.7,0-12.2-5.5-12.2-12.2
				V447.9c0-4.3-1.8-8-4.9-10.4c-19.6-15.9-31.8-42.8-31.8-72.8c0-42.2,23.9-77.7,56.3-84.4C679.1,279.7,679.1,279.7,679.7,279.7
				 M679.7,273.6c-0.6,0-1.2,0-2.4,0c-34.9,7.3-60.6,45.3-60.6,90.5c0,32.4,13.5,61.2,33.6,77.7c1.8,1.2,3.1,3.7,3.1,6.1v137.6
				c0,10.4,8,18.4,18.4,18.4c10.4,0,18.4-8,18.4-18.4V456.5V346.4c0,0,0-41,0-61.8C690.1,278.5,685.2,273.6,679.7,273.6L679.7,273.6
				z"/>
		</g>
		<g>
			<path class="st0" d="M238.7,279.7c2.4,0,4.9,2.4,4.9,4.9v80.7c0,19-11,36.7-28.8,44.7c-4.9,2.4-8,6.7-8,12.2v163.3
				c0,6.7-5.5,12.2-12.2,12.2c-6.7,0-12.2-5.5-12.2-12.2V422.2c0-5.5-3.1-9.8-8-12.2c-17.7-8-28.8-25.7-28.8-44.7v-80.7
				c0-2.4,1.8-4.9,4.9-4.9c3.1,0,4.9,2.4,4.9,4.9v89.3c0,9.2,7.3,15.9,16.5,15.9c4.3,0,8.6-1.8,11.6-4.9c3.1-3.1,4.9-7.3,4.9-11.6
				V284c0-1.2,0.6-2.4,1.2-3.7c1.2-1.2,2.4-1.2,3.7-1.2h3.7c1.2,0,2.4,0.6,3.7,1.2c1.2,1.2,1.2,2.4,1.2,3.7v88.7
				c0,4.3,1.8,8.6,4.9,11.6c3.1,3.1,7.3,4.9,11.6,4.9c9.2,0,15.9-7.3,15.9-15.9V284C233.8,282.1,235.6,279.7,238.7,279.7
				 M238.7,273.6L238.7,273.6c-6.1,0-11,4.9-11,11v89.3c0,5.5-4.3,9.8-9.8,9.8l0,0c-5.5,0-10.4-4.3-9.8-10.4v-88.7
				c0-6.1-4.9-11-11-11h-3.7c-6.1,0-11,4.9-11,11v89.3c0,5.5-4.3,9.8-9.8,9.8l0,0c-5.5,0-9.8-4.3-9.8-9.8v-89.3c0-6.1-4.9-11-11-11
				s-12.2,4.9-12.2,11v80.7c0,22.6,13.5,41.6,32.4,50.2c2.4,1.2,4.3,3.7,4.3,6.7c0,23.2,0,122.3,0,163.3c0,10.4,8,18.4,18.4,18.4
				l0,0c10.4,0,18.4-8,18.4-18.4V422.2c0-3.1,1.8-5.5,4.3-6.7c19-8.6,32.4-27.5,32.4-50.2v-80.7
				C249.7,278.5,244.8,273.6,238.7,273.6L238.7,273.6z"/>
		</g>
	</g>
	<g>
		<path class="st0" d="M433.2,291.9C514,291.9,580,358,580,438.7S514,585.6,433.2,585.6s-146.8-66.1-146.8-146.8
			S351.8,291.9,433.2,291.9 M433.2,285.8c-84.4,0-152.9,68.5-152.9,152.9s68.5,152.9,152.9,152.9s152.9-68.5,152.9-152.9
			S517.6,285.8,433.2,285.8L433.2,285.8z"/>
	</g>
</g>
</svg>
