<?xml version="1.0" encoding="utf-8"?>
<!-- Generator: Adobe Illustrator 21.0.0, SVG Export Plug-In . SVG Version: 6.00 Build 0)  -->
<svg version="1.1" id="Layer_1" xmlns="http://www.w3.org/2000/svg" xmlns:xlink="http://www.w3.org/1999/xlink" x="0px" y="0px"
	 viewBox="0 0 850.4 850.4" style="enable-background:new 0 0 850.4 850.4;" xml:space="preserve">
<style type="text/css">
	.st0{display:none;fill:#A6C953;stroke:#000000;stroke-miterlimit:10;}
	.st1{fill:#A6C953;stroke:#000000;stroke-miterlimit:10;}
	.st2{fill:#FFFFFF;}
</style>
<rect y="0" class="st0" width="850.4" height="850.4"/>
<path class="st1" d="M-149.4,285"/>
<path class="st2" d="M205.4,463.4c0,64.6,28,122.8,72.6,163.1L261.5,654c-7.2,12-7.4,26.4-0.5,38.5c6.9,12.1,19.3,19.4,33.3,19.4
	c13.4,0,25.9-7.1,32.8-18.6l15.7-26.2c25.5,10.3,53.3,16.1,82.4,16.1s56.9-5.8,82.4-16.1l15.7,26.2c6.9,11.4,19.4,18.6,32.8,18.6
	c14,0,26.4-7.3,33.3-19.4c6.9-12.1,6.7-26.5-0.5-38.5l-16.5-27.5C617,586.2,645,528.1,645,463.4c0-104.8-73.7-192.6-172-214.5v-5.3
	c0-26.3-21.4-47.8-47.8-47.8s-47.8,21.4-47.8,47.8v5.3C279.1,270.8,205.4,358.6,205.4,463.4z M325.3,659.2l-14.6,24.3
	c-3.4,5.7-9.7,9.3-16.4,9.3c-7,0-13.2-3.6-16.6-9.7c-3.4-6.1-3.3-13.3,0.2-19.2l15-25c0.6,0.4,1.2,0.8,1.8,1.2
	c3.8,2.8,7.7,5.5,11.7,8c1.3,0.8,2.5,1.6,3.8,2.4c4.5,2.8,9,5.3,13.7,7.8C324.2,658.6,324.7,658.9,325.3,659.2z M557.6,638.9l15,25
	c3.6,6,3.7,13.2,0.2,19.2c-3.4,6.1-9.7,9.7-16.7,9.7c-6.7,0-13-3.6-16.4-9.3l-14.6-24.3c0.5-0.3,1-0.6,1.5-0.9
	c4.7-2.4,9.2-5,13.7-7.8c1.3-0.8,2.5-1.6,3.8-2.4c4-2.6,7.9-5.2,11.7-8C556.4,639.7,557,639.3,557.6,638.9z M625.9,463.4
	c0,68.6-34.6,129.2-87.3,165.4c-0.9,0.6-1.7,1.2-2.6,1.8c-4.7,3.1-9.5,6.1-14.5,8.8c-0.3,0.2-0.6,0.4-1,0.6
	c-28.4,15.4-60.9,24.2-95.4,24.2s-67-8.8-95.4-24.2c-0.3-0.2-0.6-0.4-1-0.6c-5-2.7-9.8-5.7-14.4-8.8c-0.9-0.6-1.7-1.2-2.6-1.8
	c-52.7-36.2-87.3-96.8-87.3-165.4c0-100.8,74.8-184.3,171.8-198.4c3.3-0.5,6.6-1,9.8-1.4c5.3-0.5,10.6-0.7,16-0.8c2,0,4,0,6,0
	c5.4,0.1,10.8,0.3,16,0.8c3.3,0.3,6.5,0.9,9.8,1.4C551.1,279.1,625.9,362.6,625.9,463.4z M396.5,245.5v-1.9
	c0-15.8,12.9-28.7,28.7-28.7s28.7,12.9,28.7,28.7v1.9c-0.3,0-0.5,0-0.8-0.1c-4-0.5-8-0.9-12-1.2c-0.8-0.1-1.6-0.1-2.5-0.2
	c-4.4-0.3-8.9-0.4-13.4-0.4s-9,0.2-13.4,0.4c-0.8,0-1.6,0.1-2.5,0.2c-4,0.3-8,0.7-12,1.2C397.1,245.5,396.8,245.5,396.5,245.5z"/>
<path class="st2" d="M425.2,291.4c-94.9,0-172,77.2-172,172s77.2,172,172,172s172-77.2,172-172S520.1,291.4,425.2,291.4z
	 M434.8,615.8v-18.6h-19.1v18.6C339,611.1,277.5,549.7,272.8,473h18.6v-19.1h-18.6c4.8-76.7,66.2-138.1,142.9-142.9v18.6h19.1V311
	c76.7,4.8,138.1,66.2,142.9,142.9H559V473h18.6C572.9,549.7,511.4,611.1,434.8,615.8z"/>
<path class="st2" d="M625.9,320.1H645c0-63.2-51.4-114.7-114.7-114.7v19.1C583,224.5,625.9,267.4,625.9,320.1z"/>
<path class="st2" d="M530.3,138.5v19.1c89.6,0,162.5,72.9,162.5,162.5h19.1C711.9,219.9,630.5,138.5,530.3,138.5z"/>
<path class="st2" d="M320.1,224.5v-19.1c-63.2,0-114.7,51.4-114.7,114.7h19.1C224.5,267.4,267.4,224.5,320.1,224.5z"/>
<path class="st2" d="M320.1,157.6v-19.1c-100.1,0-181.6,81.5-181.6,181.6h19.1C157.6,230.5,230.5,157.6,320.1,157.6z"/>
<path class="st2" d="M434.8,436.5v-78.2h-19.1v78.1c-0.3,0.1-0.6,0.3-0.9,0.4c-0.5,0.2-1,0.4-1.6,0.7c-1.1,0.5-2.1,1.1-3.1,1.7
	c-0.5,0.3-0.9,0.6-1.4,0.9c-1.1,0.8-2.2,1.7-3.2,2.6c-0.2,0.2-0.4,0.4-0.6,0.6c-1.2,1.2-2.2,2.5-3.2,3.9c-0.3,0.4-0.5,0.8-0.7,1.2
	c-0.6,1-1.2,2.1-1.8,3.2c-0.2,0.5-0.5,1.1-0.7,1.6c-0.4,1.1-0.8,2.3-1.1,3.5c-0.1,0.5-0.3,1-0.4,1.6c-0.3,1.7-0.5,3.5-0.5,5.3
	s0.2,3.6,0.5,5.3c0.1,0.6,0.3,1.1,0.4,1.6c0.3,1.2,0.6,2.3,1.1,3.4c0.2,0.6,0.5,1.1,0.7,1.7c0.5,1.1,1,2.1,1.6,3
	c0.3,0.5,0.6,1,0.9,1.5c0.2,0.3,0.4,0.6,0.6,0.9l-33.2,54l16.3,10l33-53.7c2.2,0.5,4.4,0.9,6.7,0.9c15.8,0,28.7-12.9,28.7-28.7
	C453.9,451,445.9,440.5,434.8,436.5z M425.2,473c-2.5,0-4.7-1-6.4-2.6c-0.2-0.1-0.3-0.3-0.5-0.4c-0.7-0.8-1.3-1.7-1.8-2.6
	c-0.1-0.2-0.2-0.4-0.3-0.7c-0.4-1-0.7-2.1-0.7-3.3c0-5.3,4.3-9.6,9.6-9.6s9.6,4.3,9.6,9.6S430.5,473,425.2,473z"/>
</svg>
