<?xml version="1.0" encoding="utf-8"?>
<!-- Generator: Adobe Illustrator 21.0.0, SVG Export Plug-In . SVG Version: 6.00 Build 0)  -->
<svg version="1.1" id="Layer_1" xmlns="http://www.w3.org/2000/svg" xmlns:xlink="http://www.w3.org/1999/xlink" x="0px" y="0px"
	 viewBox="0 0 850.4 850.4" style="enable-background:new 0 0 850.4 850.4;" xml:space="preserve">
<style type="text/css">
	.st0{display:none;fill:#A6C953;stroke:#000000;stroke-miterlimit:10;}
	.st1{fill:#FFFFFF;stroke:#000000;stroke-miterlimit:10;}
	.st2{fill:#FFFFFF;}
</style>
<rect y="0" class="st0" width="850.4" height="850.4"/>
<path class="st1" d="M619.1,268.5"/>
<g>
	<g>
		<path class="st2" d="M625.7,218.6c-2-2-4.2-3.8-6.3-5.7c-0.4-0.4-0.8-0.8-1.3-1.2c-35.1-32-77.7-54.7-123.8-66
			c-4.3-1.2-8.6-2.1-12.7-2.8c-18.6-3.8-37.5-5.7-56.4-5.6c-62.4-0.2-123.1,20-172.8,57.6c-11.8,8.8-22.8,18.5-33.1,29
			c-30.7,31.2-53.7,69.1-67.4,110.7l0,0l0,0l0,0c-24.3,73.3-18.2,153.3,17.1,222c2.2,4.3,4.5,8.6,6.9,12.6c1.3,2.3,2.9,4.4,4.3,6.7
			l0,0.1c0.5,1.2,1.1,2.2,2,3.1c33.7,53.4,84,94.2,143.2,116.1l0.3,0.1c0.9,0.3,1.8,0.8,2.7,1.1c4.5,1.7,9.1,3.2,13.5,4.4
			c84.9,25.8,176.9,10.9,249.4-40.3c4-2.8,8-5.8,11.8-8.8c58-45.5,96.4-111.6,107.1-184.6l0-0.1l0,0l0,0c2.1-13.8,3.2-27.8,3.1-41.8
			c0.1-71.8-26.8-141.1-75.3-194C634,226.7,629.9,222.5,625.7,218.6z M592.7,215.2l-12.9,4.3c-0.5-0.3-0.9-0.6-1.4-0.9l-83-41.5
			c-1-0.4-2-0.8-3-1.1V165C529,174.4,563.2,191.5,592.7,215.2z M689.9,471.1c-0.2,1.2-0.4,2.3-0.6,3.5c-0.4,2-0.7,3.9-1.2,5.9
			c-0.5,2.4-1,4.7-1.6,7.1c-0.5,1.9-0.9,3.8-1.4,5.7c-0.6,2.4-1.3,4.7-2,7.1c-0.5,1.9-1.1,3.7-1.7,5.6c-0.8,2.4-1.6,4.7-2.4,7.1
			c-0.6,1.8-1.2,3.5-1.9,5.3c-0.9,2.5-1.9,4.9-2.9,7.4c-0.6,1.6-1.2,3.2-1.9,4.7c-1.2,2.9-2.5,5.7-3.8,8.5c-0.5,1.1-1,2.3-1.6,3.4
			c-1.9,3.9-3.9,7.8-6,11.6c-0.4,0.7-0.8,1.3-1.2,2c-1.7,3.1-3.5,6.2-5.4,9.3c-0.8,1.2-1.6,2.5-2.4,3.7c-1.6,2.5-3.1,4.9-4.7,7.3
			c-0.9,1.4-1.9,2.7-2.9,4.1c-1.6,2.2-3.1,4.4-4.8,6.6c-1.1,1.4-2.1,2.8-3.2,4.1c-1.6,2.1-3.3,4.1-4.9,6.1c-1.2,1.4-2.3,2.7-3.5,4.1
			c-1.7,1.9-3.4,3.9-5.1,5.8c-1.2,1.3-2.5,2.7-3.8,4c-1.8,1.9-3.6,3.7-5.4,5.5c-1.3,1.3-2.7,2.6-4,3.9c-1.9,1.8-3.7,3.5-5.6,5.2
			c-1.4,1.2-2.8,2.5-4.2,3.7c-1.9,1.7-3.9,3.3-5.9,4.9c-1.5,1.2-2.9,2.4-4.4,3.5c-0.6,0.4-1.1,0.8-1.7,1.2l-18.7-65.2l-0.3-1
			c-0.2-0.6-0.1-1.3,0.2-1.9l54.1-97.6l0.4-0.8c0.4-0.7,1.1-1.2,2-1.3c0.3,0,0.6-0.1,1-0.1L689.9,471.1z M553.4,559.6H429.8
			c-0.4-1-0.8-2.1-1.3-3L377,464l60.1-124.9l109.7,10c0.7,0.1,1.3,0.1,2,0.1c0.1,0,0.3,0,0.4,0l57.3,114.7L553.4,559.6z
			 M330.4,629.5c-0.9,0.7-2.3,0.6-3.1-0.1l-84.7-74.1c-0.6-0.5-0.9-1.3-0.8-2.2l10.1-90.8c0.1-1.3,1.2-2.2,2.5-2.2l0.2,0l102.8,10.3
			c0.8,0.1,1.6,0.6,2,1.3l52.3,94.2c0.6,1.1,0.3,2.5-0.7,3.2L330.4,629.5z M176.6,322.9c0.8-1.9,1.6-3.7,2.4-5.5
			c1.7-3.9,3.5-7.8,5.4-11.7c1-2,2-4,3.1-6c1.9-3.7,4-7.3,6.1-10.9c1.1-1.9,2.2-3.7,3.3-5.6c2.5-4.1,5.2-8.1,8-12
			c0.8-1.2,1.6-2.4,2.4-3.6c3.6-5,7.5-9.9,11.5-14.7c1-1.2,2.1-2.3,3.1-3.5c3.1-3.5,6.2-7,9.5-10.4c1.5-1.6,3.1-3.1,4.7-4.7
			c3-2.9,6-5.8,9.1-8.6c1.7-1.5,3.4-3.1,5.2-4.6c1-0.9,2.1-1.7,3.2-2.6l3.5,10.6c0.2,0.7,0.2,1.4-0.2,2l-0.1,0.2l-54.5,87.1
			c-0.2,0.2-0.4,0.4-0.5,0.6c-0.3,0.4-0.8,0.7-1.3,0.7l-24.4,4.9C176.2,324.2,176.4,323.5,176.6,322.9z M216.3,331.5
			c0.8-0.8,1.5-1.8,2.1-2.8l53.8-85.9h111c0.2,0.8,0.4,1.5,0.6,2.3l29.8,79.5c1.2,3,3.1,5.7,5.5,7.9l-57.4,119.3
			c-0.7-0.2-1.5-0.4-2.2-0.5L256.5,441c-1.6-0.1-3.1-0.1-4.7,0.1l-36.3-108.9C215.8,332,216.1,331.8,216.3,331.5z M551.3,328
			c-0.2,1.2-1.4,2.1-2.7,2l-115-10.5c-1-0.1-1.8-0.7-2.1-1.6l-29.8-79.5c-0.5-1.2,0.1-2.6,1.2-3.1l81.7-40.8c0.7-0.3,1.5-0.3,2.2,0
			l83,41.5c1,0.5,1.6,1.7,1.3,2.8L551.3,328z M473.2,160.8v17.8L394.3,218c-2.7,1.3-5,3.2-6.9,5.5H275.2c-0.1-0.4-0.1-0.8-0.3-1.1
			l-5.4-16.2c45.4-32.6,99.8-50,155.7-49.9C441.3,156.4,457.4,157.9,473.2,160.8L473.2,160.8z M156.4,425.2
			c0-26.9,4.1-53.7,12.2-79.4l29.3-5.8l37.4,112.3c-1.4,2.5-2.2,5.2-2.5,8l-9.9,89.4l-29.6,11.1c-0.3-0.5-0.6-0.9-0.8-1.3
			c-2.3-3.8-4.3-7.5-6.3-11.6C166.5,509.9,156.3,467.9,156.4,425.2L156.4,425.2z M203.8,577.3l24.6-9.3c0.5,0.6,1,1.2,1.5,1.7
			l84.7,74.1c1.5,1.3,3.2,2.3,4.9,3.1v25.1C272.8,652.2,232.6,619.3,203.8,577.3L203.8,577.3z M347.1,682.4
			c-2.8-0.8-5.6-1.8-8.4-2.7v-32.8c1.1-0.6,2.2-1.2,3.2-2l80.5-60.4c2.1-1.6,3.8-3.5,5.2-5.7h123l19.8,69.2c0.3,0.8,0.6,1.6,0.9,2.4
			C505.1,693.8,423,705.5,347.1,682.4L347.1,682.4z M692.5,452c-0.3,0-0.6-0.1-1-0.1H626c-0.9,0-1.8,0.1-2.6,0.2
			c-0.4,0-0.7,0.2-1.1,0.2l-56.1-112.1c1.8-2.4,3.1-5.2,3.8-8.1l19.8-89.3c0.5-2.1,0.6-4.3,0.4-6.5l19.3-6.5
			c0.9,0.9,1.9,1.7,2.9,2.6c3.9,3.7,7.5,7.4,11.2,11.6c45.3,49.4,70.5,114.1,70.4,181.1C694,434.2,693.5,443.1,692.5,452L692.5,452z
			"/>
	</g>
</g>
</svg>
