<?xml version="1.0" encoding="utf-8"?>
<!-- Generator: Adobe Illustrator 21.0.0, SVG Export Plug-In . SVG Version: 6.00 Build 0)  -->
<svg version="1.1" id="Layer_1" xmlns="http://www.w3.org/2000/svg" xmlns:xlink="http://www.w3.org/1999/xlink" x="0px" y="0px"
	 viewBox="0 0 850.4 850.4" style="enable-background:new 0 0 850.4 850.4;" xml:space="preserve">
<style type="text/css">
	.st0{display:none;fill:#A6C953;stroke:#000000;stroke-miterlimit:10;}
	.st1{fill:#A6C953;stroke:#000000;stroke-miterlimit:10;}
	.st2{fill:#FCFCFC;}
</style>
<rect y="0" class="st0" width="850.4" height="850.4"/>
<path class="st1" d="M-149.4,285"/>
<path class="st2" d="M558.6,425.4c71.7-1,129.5-58.9,130.4-130.5c-0.2-18-4.1-35.7-11.7-52l-7.4-17.5c-1.5-3.6-5.6-5.3-9.2-3.8
	c-0.9,0.4-1.7,0.9-2.3,1.6l-75.6,75.7c-7.1,7.8-19.1,8.4-27,1.3c-0.5-0.4-0.9-0.9-1.3-1.3c-7.8-7.1-8.4-19.1-1.3-27
	c0.4-0.5,0.9-0.9,1.3-1.3L630,195c2.8-2.7,2.8-7.2,0.1-10c-0.6-0.6-1.4-1.2-2.2-1.5l-17.4-7.4c-16.3-7.5-34-11.5-52-11.7
	c-71.6,1-129.3,58.9-130.3,130.5c0.1,9.7,1.4,19.4,4,28.8l-14.8-14.8c-36.4-36.3-95.4-36.3-131.8,0l-96.8,96.8
	c-36.3,36.4-36.3,95.4,0,131.8l21.2,21.2l-25.2,25.3c-23.3,23.4-23.2,61.3,0.2,84.6c23.4,23.3,61.3,23.2,84.6-0.2l24.9-25l32.9,32.9
	c5.8,5.1,13.4,7.8,21.2,7.5c11.2,0,22-4.3,30-12.2c7.5-7.5,11.7-17.7,11.6-28.3c4.6,2.1,9.6,3.2,14.6,3.2h3.1
	c10.1-0.7,19.7-5,26.9-12.2c7.9-7.9,12-18.8,11.4-29.9c19.7,9.4,43.3,1.1,52.7-18.6c2.6-5.4,3.9-11.2,3.9-17.1c0-0.6,0-1.1,0-1.7
	c19.9,9,43.4,0.2,52.4-19.7c6.7-14.8,3.7-32.2-7.6-43.9L491,446.7l28.3-28.3C531.9,423,545.2,425.3,558.6,425.4z M259.3,658.6
	c-17,17.8-45.2,18.4-63,1.4c-0.5-0.5-1-0.9-1.4-1.4c-17.8-16.9-18.5-45-1.6-62.7c0.5-0.6,1.1-1.1,1.6-1.6l25.2-25.2l40.2,40.1l24,24
	L259.3,658.6z M537.2,549.1c-10,9.9-26.1,9.9-36,0l-12.9-12.9c-3-2.5-7.4-2.2-10,0.8c-2.3,2.6-2.3,6.5,0,9.2l1,1
	c0.3,1.2,0.9,2.4,1.8,3.3c10.4,9.5,11.1,25.6,1.6,36c-9.5,10.4-25.6,11.1-36,1.6c-0.6-0.5-1.1-1.1-1.6-1.6l-12.9-12.8
	c-3-2.5-7.4-2.2-10,0.8c-2.3,2.6-2.3,6.5,0,9.2l1,1c0.3,1.2,1,2.3,1.9,3.2c9.9,10,9.9,26.1,0,36c-10,10-26.1,10-31.4,4.7l-18.1-17.4
	c-3-2.5-7.4-2.2-10,0.8c-2.3,2.6-2.3,6.5,0,9.2l1,1c0.3,1.2,0.9,2.4,1.8,3.3c9.9,10,9.9,26.1,0,36c-10,10-26.1,10-31.4,4.7
	l-59.1-59.1l0,0l-7.8-7.8l-16.3-16.3l0,0l-55.5-55.5c-30.8-30.9-30.8-80.9,0-111.8l96.8-96.8c30.9-30.8,80.9-30.8,111.8,0l21.2,21.2
	l-21.6,22.3l-8.1-7.8c-3-2.5-7.4-2.2-10,0.8c-2.3,2.6-2.3,6.5,0,9.2l148.4,148.4C546.9,523,547.1,539.1,537.2,549.1z M512.4,405.3
	l-31.5,31.5l-64.4-64.4l31.5-31.5c1.9-1.9,2.6-4.8,1.6-7.4c-4.7-12.3-7.1-25.4-7.1-38.7c0.8-63.7,52.2-115.3,116-116.3
	c16,0.2,31.9,3.8,46.4,10.5l7.8,3.3l-68.3,68.3c-12.7,13.9-11.8,35.4,2.1,48.1c13,11.9,33,11.9,46,0l68.3-68.3l3.3,7.8
	c6.7,14.6,10.3,30.4,10.5,46.4c-0.7,63.9-52.3,115.6-116.2,116.5c-13.2,0-26.3-2.4-38.7-7.1C517.4,403.1,514.5,403.5,512.4,405.3z"
	/>
</svg>
